<?xml version="1.0" standalone="no"?>
<!DOCTYPE svg PUBLIC "-//W3C//DTD SVG 1.1//EN"
  "http://www.w3.org/Graphics/SVG/1.1/DTD/svg11.dtd">
<svg width="180mm" height="80.5mm" viewBox="-66 -21.5 180 80.5" xmlns="http://www.w3.org/2000/svg" version="1.1">
	<title>svgOutput</title>
	<desc>made with tinkercad</desc>
<path d="M -65 58 L -65 -20.5 L -58.00199890136719 -20.5 L -42.99700164794922 -20.5 L -30.003000259399414 -20.5 L 16.00200080871582 -20.5 L 46.99800109863281 -20.5 L 47.99700164794922 -20.5 L 94.00299835205078 -20.5 L 113 -20.5 L 113 7.001999855041504 L 113 39.00299835205078 L 113 40.00299835205078 L 113 41.00299835205078 L 113 58 L -30.003000259399414 58 L -32.50199890136719 58 L -58.00199890136719 58 L -65 58 M 92.15966033935547 7.001999855041504 L 91.28600311279297 5.1570000648498535 L 90.1259994506836 3.2200000286102295 L 88.78099822998047 1.406999945640564 L 87.5052719116211 4.440892164675075e-17 L 87.26499938964844 -0.2649999856948852 L 85.59300231933594 -1.781000018119812 L 83.77999877929688 -3.125999927520752 L 81.84300231933594 -4.285999774932861 L 79.8030014038086 -5.251999855041504 L 77.677001953125 -6.01200008392334 L 75.48799896240234 -6.560999870300293 L 73.25499725341797 -6.892000198364258 L 71 -7.002999782562256 L 68.74500274658203 -6.892000198364258 L 66.51200103759766 -6.560999870300293 L 65.53600311279297 -6.316219806671143 L 64.322998046875 -6.01200008392334 L 62.196998596191406 -5.251999855041504 L 60.15700149536133 -4.285999774932861 L 58.220001220703125 -3.125999927520752 L 56.40700149536133 -1.781000018119812 L 54.73500061035156 -0.2649999856948852 L 54.49472427368164 4.440892164675075e-17 L 53.21900177001953 1.406999945640564 L 51.874000549316406 3.2200000286102295 L 50.7140007019043 5.1570000648498535 L 49.84033966064453 7.001999855041504 L 49.74800109863281 7.197000026702881 L 48.987998962402344 9.322999954223633 L 48.43899917602539 11.51200008392334 L 48.108001708984375 13.744999885559082 L 47.99700164794922 16 L 48.01590347290039 16.384000778198242 L 48.108001708984375 18.2549991607666 L 48.43899917602539 20.488000869750977 L 48.987998962402344 22.677000045776367 L 49.74800109863281 24.80299949645996 L 50.7140007019043 26.843000411987305 L 51.874000549316406 28.780000686645508 L 53.21900177001953 30.593000411987305 L 54.73500061035156 32.26499938964844 L 55.28976058959961 32.768001556396484 L 56.40700149536133 33.78099822998047 L 58.220001220703125 35.125999450683594 L 60.15700149536133 36.2859992980957 L 62.196998596191406 37.25199890136719 L 64.322998046875 38.012001037597656 L 65.53600311279297 38.316219329833984 L 66.51200103759766 38.56100082397461 L 68.74500274658203 38.891998291015625 L 71 39.00299835205078 L 73.25499725341797 38.891998291015625 L 75.48799896240234 38.56100082397461 L 77.677001953125 38.012001037597656 L 79.8030014038086 37.25199890136719 L 81.84300231933594 36.2859992980957 L 83.77999877929688 35.125999450683594 L 85.59300231933594 33.78099822998047 L 86.71024322509766 32.768001556396484 L 87.26499938964844 32.26499938964844 L 88.78099822998047 30.593000411987305 L 90.1259994506836 28.780000686645508 L 91.28600311279297 26.843000411987305 L 92.25199890136719 24.80299949645996 L 93.01200103759766 22.677000045776367 L 93.56099700927734 20.488000869750977 L 93.89199829101562 18.2549991607666 L 93.98410034179688 16.384000778198242 L 94.00299835205078 16 L 93.89199829101562 13.744999885559082 L 93.56099700927734 11.51200008392334 L 93.01200103759766 9.322999954223633 L 92.25199890136719 7.197000026702881 L 92.15966033935547 7.001999855041504 M -57.430999755859375 2.371000051498413 L -57.34400177001953 2.5555286407470703 L -57.117000579833984 3.0369999408721924 L -56.737998962402344 3.6679999828338623 L -56.29899978637695 4.260000228881836 L -55.80500030517578 4.804999828338623 L -55.2599983215332 5.300000190734863 L -54.667999267578125 5.73799991607666 L -54.0369987487793 6.117000102996826 L -53.37099838256836 6.431000232696533 L -52.678001403808594 6.678999900817871 L -51.9640007019043 6.857999801635742 L -51.23500061035156 6.966000080108643 L -50.5 7.001999855041504 L -49.76499938964844 6.966000080108643 L -49.152000427246094 6.875185012817383 L -49.0359992980957 6.857999801635742 L -48.321998596191406 6.678999900817871 L -47.62900161743164 6.431000232696533 L -46.9630012512207 6.117000102996826 L -46.332000732421875 5.73799991607666 L -45.7400016784668 5.300000190734863 L -45.19499969482422 4.804999828338623 L -44.70000076293945 4.260000228881836 L -44.262001037597656 3.6679999828338623 L -43.882999420166016 3.0369999408721924 L -43.569000244140625 2.371000051498413 L -43.32099914550781 1.6779999732971191 L -43.141998291015625 0.9639999866485596 L -43.034000396728516 0.2349999994039536 L -43.02217102050781 4.440892164675075e-17 L -42.99700164794922 -0.49999999999999994 L -43.034000396728516 -1.2350000143051147 L -43.141998291015625 -1.9639999866485596 L -43.32099914550781 -2.677999973297119 L -43.569000244140625 -3.371000051498413 L -43.882999420166016 -4.0370001792907715 L -43.91843795776367 -4.0960001945495605 L -44.262001037597656 -4.668000221252441 L -44.70000076293945 -5.260000228881836 L -45.19499969482422 -5.804999828338623 L -45.7400016784668 -6.300000190734863 L -46.332000732421875 -6.73799991607666 L -46.9630012512207 -7.117000102996826 L -47.62900161743164 -7.431000232696533 L -48.321998596191406 -7.678999900817871 L -49.0359992980957 -7.857999801635742 L -49.152000427246094 -7.875185012817383 L -49.76499938964844 -7.966000080108643 L -50.5 -8.001999855041504 L -51.23500061035156 -7.966000080108643 L -51.9640007019043 -7.857999801635742 L -52.678001403808594 -7.678999900817871 L -53.37099838256836 -7.431000232696533 L -54.0369987487793 -7.117000102996826 L -54.667999267578125 -6.73799991607666 L -55.2599983215332 -6.300000190734863 L -55.80500030517578 -5.804999828338623 L -56.29899978637695 -5.260000228881836 L -56.737998962402344 -4.668000221252441 L -57.117000579833984 -4.0370001792907715 L -57.34400177001953 -3.5555286407470703 L -57.430999755859375 -3.371000051498413 L -57.67900085449219 -2.677999973297119 L -57.858001708984375 -1.9639999866485596 L -57.965999603271484 -1.2350000143051147 L -58.00199890136719 -0.49999999999999994 L -57.977508544921875 4.440892164675075e-17 L -57.965999603271484 0.2349999994039536 L -57.858001708984375 0.9639999866485596 L -57.67900085449219 1.6779999732971191 L -57.430999755859375 2.371000051498413 M -9.255000114440918 39.891998291015625 L -7 40.00299835205078 L -4.744999885559082 39.891998291015625 L -2.51200008392334 39.56100082397461 L -0.3230000138282776 39.012001037597656 L 0 38.89653396606445 L 1.8029999732971191 38.25199890136719 L 3.8429999351501465 37.2859992980957 L 5.78000020980835 36.125999450683594 L 7.5929999351501465 34.78099822998047 L 9.265000343322754 33.26499938964844 L 9.715629577636719 32.768001556396484 L 10.781000137329102 31.593000411987305 L 12.12600040435791 29.780000686645508 L 13.28600025177002 27.843000411987305 L 14.251999855041504 25.80299949645996 L 15.01200008392334 23.677000045776367 L 15.560999870300293 21.488000869750977 L 15.892000198364258 19.2549991607666 L 16.00200080871582 17 L 15.971951484680176 16.384000778198242 L 15.892000198364258 14.744999885559082 L 15.560999870300293 12.51200008392334 L 15.01200008392334 10.322999954223633 L 14.251999855041504 8.196999549865723 L 13.686132431030273 7.001999855041504 L 13.28600025177002 6.1570000648498535 L 12.12600040435791 4.21999979019165 L 10.781000137329102 2.4070000648498535 L 9.265000343322754 0.7350000143051147 L 8.454366683959961 4.440892164675075e-17 L 7.5929999351501465 -0.781000018119812 L 5.78000020980835 -2.125999927520752 L 3.8429999351501465 -3.2860000133514404 L 1.8029999732971191 -4.251999855041504 L -0.3230000138282776 -5.01200008392334 L -2.51200008392334 -5.560999870300293 L -4.744999885559082 -5.892000198364258 L -7 -6.002999782562256 L -9.255000114440918 -5.892000198364258 L -11.48799991607666 -5.560999870300293 L -13.677000045776367 -5.01200008392334 L -15.803000450134277 -4.251999855041504 L -17.843000411987305 -3.2860000133514404 L -19.780000686645508 -2.125999927520752 L -21.593000411987305 -0.781000018119812 L -22.45436668395996 4.440892164675075e-17 L -23.264999389648438 0.7350000143051147 L -24.7810001373291 2.4070000648498535 L -26.125999450683594 4.21999979019165 L -27.285999298095703 6.1570000648498535 L -27.686132431030273 7.001999855041504 L -28.25200080871582 8.196999549865723 L -29.011999130249023 10.322999954223633 L -29.56100082397461 12.51200008392334 L -29.892000198364258 14.744999885559082 L -29.97267723083496 16.384000778198242 L -30.003000259399414 17 L -29.892000198364258 19.2549991607666 L -29.56100082397461 21.488000869750977 L -29.011999130249023 23.677000045776367 L -28.25200080871582 25.80299949645996 L -27.285999298095703 27.843000411987305 L -26.125999450683594 29.780000686645508 L -24.7810001373291 31.593000411987305 L -23.71562957763672 32.768001556396484 L -23.264999389648438 33.26499938964844 L -21.593000411987305 34.78099822998047 L -19.780000686645508 36.125999450683594 L -17.843000411987305 37.2859992980957 L -15.803000450134277 38.25199890136719 L -13.677000045776367 39.012001037597656 L -11.48799991607666 39.56100082397461 L -9.255000114440918 39.891998291015625 z" fill="none" stroke="rgb(0,0,255)" stroke-width="0.05mm" />
</svg>